# xmcd
#
# Track frame offsets: 
#        182
#        20202
#        40342
#        59775
#        74615
#
# Disc length: 1277 seconds
#
# Revision: 2
# Processed by: cddbd v1.5.2PL0 Copyright (c) Steve Scherf et al.
# Submitted via: ExactAudioCopy v0.95b4
#
DISCID=4f04fb05
DTITLE=2pac - Keep Ya Head Up
DYEAR=1993
DGENRE=Hip-Hop
TTITLE0=Keep Ya Head Up (LP Version)
TTITLE1=Keep Ya Head Up (Vibe Tribe Remix)
TTITLE2=Keep Ya Head Up (Madukey Remix)
TTITLE3=Rebel Of The Underground
TTITLE4=I Wonda If Heaven's Got A Ghetto
EXTD=
EXTT0=
EXTT1=
EXTT2=
EXTT3=
EXTT4=
PLAYORDER=
